<svg id="Layer_1" data-name="Layer 1" xmlns="http://www.w3.org/2000/svg" xmlns:xlink="http://www.w3.org/1999/xlink" viewBox="0 0 1000 1000"><defs><style>.cls-1{fill:url(#linear-gradient);}.cls-2{fill:url(#linear-gradient-2);}.cls-3{fill:url(#linear-gradient-3);}.cls-4{fill:url(#linear-gradient-4);}.cls-5{fill:url(#linear-gradient-5);}.cls-6{fill:url(#linear-gradient-6);}.cls-7{fill:url(#linear-gradient-7);}.cls-8{fill:url(#linear-gradient-8);}.cls-9{fill:url(#linear-gradient-9);}.cls-10{fill:url(#linear-gradient-10);}.cls-11{fill:url(#linear-gradient-11);}.cls-12{fill:url(#linear-gradient-12);}.cls-13{fill:url(#linear-gradient-13);}.cls-14{fill:url(#linear-gradient-14);}.cls-15{fill:url(#linear-gradient-15);}.cls-16{fill:url(#linear-gradient-16);}.cls-17{fill:#a7a9ac;}.cls-18{fill:url(#linear-gradient-17);}.cls-19{fill:url(#linear-gradient-18);}.cls-20{fill:url(#linear-gradient-19);}.cls-21{fill:url(#linear-gradient-20);}.cls-22{fill:url(#linear-gradient-21);}.cls-23{fill:url(#linear-gradient-22);}.cls-24{fill:url(#linear-gradient-23);}.cls-25{fill:url(#linear-gradient-24);}.cls-26{fill:url(#linear-gradient-25);}.cls-27{fill:url(#linear-gradient-26);}.cls-28{fill:url(#linear-gradient-27);}.cls-29{fill:url(#linear-gradient-28);}.cls-30{fill:url(#linear-gradient-29);}.cls-31{fill:url(#linear-gradient-30);}.cls-32{fill:url(#linear-gradient-31);}.cls-33{fill:url(#linear-gradient-32);}.cls-34{fill:url(#linear-gradient-33);}.cls-35{fill:url(#linear-gradient-34);}.cls-36{fill:url(#linear-gradient-35);}.cls-37{fill:url(#linear-gradient-36);}.cls-38{fill:url(#linear-gradient-37);}.cls-39{fill:url(#linear-gradient-38);}.cls-40{fill:url(#linear-gradient-39);}.cls-41{fill:url(#linear-gradient-40);}.cls-42{fill:url(#linear-gradient-41);}.cls-43{fill:url(#linear-gradient-42);}.cls-44{fill:url(#linear-gradient-43);}.cls-45{fill:url(#linear-gradient-44);}.cls-46{fill:url(#linear-gradient-45);}.cls-47{fill:url(#linear-gradient-46);}.cls-48{fill:url(#linear-gradient-47);}.cls-49{fill:url(#linear-gradient-48);}.cls-50{fill:url(#linear-gradient-49);}.cls-51{fill:url(#linear-gradient-50);}.cls-52{fill:url(#linear-gradient-51);}.cls-53{fill:url(#linear-gradient-52);}.cls-54{fill:url(#linear-gradient-53);}.cls-55{fill:url(#linear-gradient-54);}</style><linearGradient id="linear-gradient" x1="430.26" y1="496.25" x2="688.88" y2="472.19" gradientUnits="userSpaceOnUse"><stop offset="0" stop-color="#4c9f45"/><stop offset="1" stop-color="#1a5c2e"/></linearGradient><linearGradient id="linear-gradient-2" x1="-39.72" y1="658.51" x2="584.58" y2="701.08" gradientUnits="userSpaceOnUse"><stop offset="0" stop-color="#f4c22e"/><stop offset="0" stop-color="#ecc33e"/><stop offset="0.32" stop-color="#fcf38f"/><stop offset="0.68" stop-color="#dcac26"/></linearGradient><linearGradient id="linear-gradient-3" x1="-39.66" y1="657.6" x2="584.64" y2="700.17" xlink:href="#linear-gradient-2"/><linearGradient id="linear-gradient-4" x1="-41.68" y1="687.28" x2="582.61" y2="729.85" xlink:href="#linear-gradient-2"/><linearGradient id="linear-gradient-5" x1="-40.76" y1="673.75" x2="583.54" y2="716.32" xlink:href="#linear-gradient-2"/><linearGradient id="linear-gradient-6" x1="-43.94" y1="720.44" x2="580.35" y2="763.01" xlink:href="#linear-gradient-2"/><linearGradient id="linear-gradient-7" x1="-43.88" y1="719.53" x2="580.42" y2="762.1" xlink:href="#linear-gradient-2"/><linearGradient id="linear-gradient-8" x1="-40.1" y1="664.07" x2="584.2" y2="706.63" xlink:href="#linear-gradient-2"/><linearGradient id="linear-gradient-9" x1="-43.06" y1="707.54" x2="581.23" y2="750.1" xlink:href="#linear-gradient-2"/><linearGradient id="linear-gradient-10" x1="-39.4" y1="653.85" x2="584.89" y2="696.41" xlink:href="#linear-gradient-2"/><linearGradient id="linear-gradient-11" x1="-41.69" y1="687.49" x2="582.6" y2="730.06" xlink:href="#linear-gradient-2"/><linearGradient id="linear-gradient-12" x1="-39.68" y1="658" x2="584.61" y2="700.56" xlink:href="#linear-gradient-2"/><linearGradient id="linear-gradient-13" x1="-35.71" y1="599.67" x2="588.59" y2="642.23" xlink:href="#linear-gradient-2"/><linearGradient id="linear-gradient-14" x1="-35.77" y1="600.58" x2="588.53" y2="643.14" xlink:href="#linear-gradient-2"/><linearGradient id="linear-gradient-15" x1="-35.1" y1="590.8" x2="589.19" y2="633.37" xlink:href="#linear-gradient-2"/><linearGradient id="linear-gradient-16" x1="-37.94" y1="632.45" x2="586.35" y2="675.01" xlink:href="#linear-gradient-2"/><linearGradient id="linear-gradient-17" x1="663.45" y1="307.82" x2="687.13" y2="307.82" xlink:href="#linear-gradient-2"/><linearGradient id="linear-gradient-18" x1="637.5" y1="277.66" x2="664.36" y2="277.66" xlink:href="#linear-gradient-2"/><linearGradient id="linear-gradient-19" x1="611.83" y1="252.26" x2="638.68" y2="252.26" xlink:href="#linear-gradient-2"/><linearGradient id="linear-gradient-20" x1="583.71" y1="230.09" x2="613.92" y2="230.09" xlink:href="#linear-gradient-2"/><linearGradient id="linear-gradient-21" x1="633.46" y1="324.56" x2="685.1" y2="324.56" xlink:href="#linear-gradient-2"/><linearGradient id="linear-gradient-22" x1="603.37" y1="300.94" x2="658.27" y2="300.94" xlink:href="#linear-gradient-2"/><linearGradient id="linear-gradient-23" x1="580.51" y1="278.29" x2="635.41" y2="278.29" xlink:href="#linear-gradient-2"/><linearGradient id="linear-gradient-24" x1="553.41" y1="258.15" x2="608.97" y2="258.15" xlink:href="#linear-gradient-2"/><linearGradient id="linear-gradient-25" x1="552.42" y1="213.99" x2="585.17" y2="213.99" xlink:href="#linear-gradient-2"/><linearGradient id="linear-gradient-26" x1="520.5" y1="199" x2="559.13" y2="199" xlink:href="#linear-gradient-2"/><linearGradient id="linear-gradient-27" x1="489.49" y1="184.82" x2="529.96" y2="184.82" xlink:href="#linear-gradient-2"/><linearGradient id="linear-gradient-28" x1="458.86" y1="172.27" x2="500.5" y2="172.27" xlink:href="#linear-gradient-2"/><linearGradient id="linear-gradient-29" x1="529.01" y1="239.74" x2="580.32" y2="239.74" xlink:href="#linear-gradient-2"/><linearGradient id="linear-gradient-30" x1="505.54" y1="224.3" x2="557.17" y2="224.3" xlink:href="#linear-gradient-2"/><linearGradient id="linear-gradient-31" x1="477.43" y1="210.16" x2="529.01" y2="210.16" xlink:href="#linear-gradient-2"/><linearGradient id="linear-gradient-32" x1="450.49" y1="196.44" x2="502.13" y2="196.44" xlink:href="#linear-gradient-2"/><linearGradient id="linear-gradient-33" x1="433.63" y1="162.64" x2="469.16" y2="162.64" xlink:href="#linear-gradient-2"/><linearGradient id="linear-gradient-34" x1="408.29" y1="155.71" x2="443.82" y2="155.71" xlink:href="#linear-gradient-2"/><linearGradient id="linear-gradient-35" x1="380.67" y1="148.27" x2="417.43" y2="148.27" xlink:href="#linear-gradient-2"/><linearGradient id="linear-gradient-36" x1="343.24" y1="151.36" x2="387.37" y2="151.36" xlink:href="#linear-gradient-2"/><linearGradient id="linear-gradient-37" x1="426.86" y1="185.64" x2="469.16" y2="185.64" xlink:href="#linear-gradient-2"/><linearGradient id="linear-gradient-38" x1="400.7" y1="175.56" x2="442.99" y2="175.56" xlink:href="#linear-gradient-2"/><linearGradient id="linear-gradient-39" x1="374.42" y1="169.38" x2="416.27" y2="169.38" xlink:href="#linear-gradient-2"/><linearGradient id="linear-gradient-40" x1="15.11" y1="398.75" x2="384.83" y2="398.75" xlink:href="#linear-gradient"/><linearGradient id="linear-gradient-41" x1="376.24" y1="205.41" x2="1057.29" y2="660.79" xlink:href="#linear-gradient-2"/><linearGradient id="linear-gradient-42" x1="946.61" y1="605.43" x2="984.89" y2="605.43" xlink:href="#linear-gradient-2"/><linearGradient id="linear-gradient-43" x1="479.73" y1="338.1" x2="518.01" y2="338.1" xlink:href="#linear-gradient"/><linearGradient id="linear-gradient-44" x1="140.88" y1="611.76" x2="336.34" y2="599.73" xlink:href="#linear-gradient"/><linearGradient id="linear-gradient-45" x1="141.25" y1="617.76" x2="336.71" y2="605.73" xlink:href="#linear-gradient"/><linearGradient id="linear-gradient-46" x1="141.11" y1="615.57" x2="336.58" y2="603.54" xlink:href="#linear-gradient"/><linearGradient id="linear-gradient-47" x1="141.09" y1="615.14" x2="336.55" y2="603.11" xlink:href="#linear-gradient"/><linearGradient id="linear-gradient-48" x1="141.46" y1="621.12" x2="336.92" y2="609.09" xlink:href="#linear-gradient"/><linearGradient id="linear-gradient-49" x1="141.54" y1="622.43" x2="337" y2="610.4" xlink:href="#linear-gradient"/><linearGradient id="linear-gradient-50" x1="141.59" y1="623.33" x2="337.06" y2="611.3" xlink:href="#linear-gradient"/><linearGradient id="linear-gradient-51" x1="142.14" y1="632.21" x2="337.6" y2="620.18" xlink:href="#linear-gradient"/><linearGradient id="linear-gradient-52" x1="141.7" y1="625.05" x2="337.16" y2="613.02" xlink:href="#linear-gradient"/><linearGradient id="linear-gradient-53" x1="141.76" y1="626.01" x2="337.22" y2="613.98" xlink:href="#linear-gradient"/><linearGradient id="linear-gradient-54" x1="142.13" y1="632.01" x2="337.59" y2="619.98" xlink:href="#linear-gradient"/></defs><path class="cls-1" d="M443.22,618.35q-16.89,0-34.7-.89l1.19-23.73c89.16,4.44,206.56-6.48,259.5-83.75,8.18-11.94,9.95-22.4,5.57-32.92-16.73-40.18-113.81-69.27-166.63-81L538,539.43l-23.26,4.85L477.61,366,495,369.15a697.22,697.22,0,0,1,88.59,23.35c63.15,21.41,101.22,46.79,113.15,75.41,5.2,12.48,8,32.23-7.9,55.5C646.06,585.81,561.54,618.35,443.22,618.35Z"/><rect class="cls-2" x="38.48" y="659.25" width="8.56" height="9.77"/><rect class="cls-3" x="51.98" y="659.25" width="8.46" height="9.77"/><path class="cls-4" d="M71.84,710.84H41.5q-10.07,0-13.95-2.57t-3.88-8.41a97.45,97.45,0,0,1,1.21-12l.91-7.46-7.56-.4Q17,685.55,16.06,691.7a68.79,68.79,0,0,0-.95,10.38c0,4.5,1,8,3,10.53a15.88,15.88,0,0,0,8.81,5.29A62.58,62.58,0,0,0,42,719.4h39.4V669H71.84Z"/><polygon class="cls-5" points="107.5 647.66 97.93 647.66 97.93 719.4 117.08 719.4 117.08 710.84 107.5 710.84 107.5 647.66"/><rect class="cls-6" x="125.74" y="727.47" width="8.56" height="9.68"/><rect class="cls-7" x="139.25" y="727.47" width="8.46" height="9.68"/><path class="cls-8" d="M364.15,710.84H340.57V685c0-6.17-1.51-10.56-4.53-13.14s-7.19-3.88-12.5-3.88a84.7,84.7,0,0,0-11.23,1q-6.81,1-12.25,2.27l.31,6.75q16.42-1.61,20.85-1.61,9.88,0,9.88,9.67v24.79H287.47a7.85,7.85,0,0,1-4.28-1.16,8.91,8.91,0,0,1-3-3V694.22q0-13.92-5.69-20.05T255.73,668a55.88,55.88,0,0,0-10.33.9,41.09,41.09,0,0,0-7.51,2,100.17,100.17,0,0,0-2,10.83,92.08,92.08,0,0,0-.91,12.85,96.29,96.29,0,0,0,1.41,16.22H208.57a32.77,32.77,0,0,1-10.68-1.91,49.27,49.27,0,0,0,11.84-13q4.38-7.2,4.58-13.15l.41-7.66a63.74,63.74,0,0,0-12.85-5.24,48,48,0,0,0-13.15-1.91,46.9,46.9,0,0,0-13.05,1.91A62.06,62.06,0,0,0,163,675.07l.31,7.66q.19,5.94,4.58,13.15a49.7,49.7,0,0,0,11.74,13,31.93,31.93,0,0,1-10.58,1.91h-27.4V669h-9.58v41.82h-15v8.56h52.29a43.84,43.84,0,0,0,10-1.2,45.19,45.19,0,0,0,9.47-3.33,49.67,49.67,0,0,0,9.72,3.33,44.92,44.92,0,0,0,10.13,1.2h71.54v-4.12a11.53,11.53,0,0,0,3.43,3,7.71,7.71,0,0,0,3.83,1.15h86.25V647.66h-9.57ZM188.82,704.7A37.89,37.89,0,0,1,177,693.41a24.34,24.34,0,0,1-4.28-13.5,48.17,48.17,0,0,1,16.12-3.33,49.21,49.21,0,0,1,16.32,3.33,23.92,23.92,0,0,1-4.33,13.45A39.55,39.55,0,0,1,188.82,704.7Zm81.82,6.14H245.85q-.49-2.72-1-7.2t-.45-9A106.69,106.69,0,0,1,246,677.49a39,39,0,0,1,8.47-.91q8.46,0,12.34,4.08T270.64,694Z"/><rect class="cls-9" x="317.09" y="727.47" width="9.17" height="9.87"/><rect class="cls-10" x="391.25" y="647.66" width="9.57" height="71.74"/><rect class="cls-11" x="612.42" y="727.47" width="9.17" height="9.87"/><path class="cls-12" d="M682.76,668a55.88,55.88,0,0,0-10.33.9,41.09,41.09,0,0,0-7.51,2,100.17,100.17,0,0,0-2,10.83,92.08,92.08,0,0,0-.91,12.85,96.29,96.29,0,0,0,1.41,16.22H635.9V685c0-6.17-1.51-10.56-4.53-13.14s-7.19-3.88-12.5-3.88a84.7,84.7,0,0,0-11.23,1q-6.81,1-12.24,2.27l.3,6.75q16.42-1.61,20.86-1.61,9.87,0,9.87,9.67v24.79H574.64V647.66h-9.57v63.18H541.49V691.39a81.07,81.07,0,0,0-.91-10q-.9-6.6-2.12-12.35l-8.05.31q1.61,15,1.61,22.06v19.45h-9.68a10,10,0,0,1-4.08-.91,13.52,13.52,0,0,1-3.47-2.11,35.47,35.47,0,0,0,1.3-10.18V674.06h-9.47v23.68a19.22,19.22,0,0,1-2.06,9.37,6.92,6.92,0,0,1-6.5,3.73H489.8V674.06h-9.58v47.46a12.27,12.27,0,0,1-2.27,7.26,15.43,15.43,0,0,1-6.24,5.09,20.59,20.59,0,0,1-8.82,1.86,19.87,19.87,0,0,1-9.12-2,14.9,14.9,0,0,1-6.14-5.54,14.3,14.3,0,0,1-2.17-7.66q0-5.84,3.93-28.31l-9.17-.5q-4.12,24.07-4.13,30.53a20.34,20.34,0,0,0,3.17,10.93,22.52,22.52,0,0,0,9.32,8.16,32.34,32.34,0,0,0,14.62,3.08,34.52,34.52,0,0,0,13.8-2.62,21.85,21.85,0,0,0,9.42-7.41,18.49,18.49,0,0,0,3.38-10.93v-4h11.38a12.61,12.61,0,0,0,9.68-4,17.88,17.88,0,0,0,11.28,4h185.1V694.22q0-13.92-5.69-20.05T682.76,668Zm14.91,42.82H672.88q-.5-2.72-1-7.2a87.45,87.45,0,0,1-.46-9A107.85,107.85,0,0,1,673,677.49a39.11,39.11,0,0,1,8.47-.91q8.46,0,12.34,4.08T697.67,694Z"/><rect class="cls-13" x="768.2" y="649.88" width="8.46" height="9.77"/><rect class="cls-14" x="754.7" y="649.88" width="8.57" height="9.77"/><rect class="cls-15" x="897.68" y="649.78" width="9.17" height="9.87"/><path class="cls-16" d="M976.53,674.17Q970.85,668,957.74,668a55.88,55.88,0,0,0-10.33.9,41.33,41.33,0,0,0-7.51,2,100.17,100.17,0,0,0-2,10.83,92.08,92.08,0,0,0-.91,12.85,96.29,96.29,0,0,0,1.41,16.22H907.06V669h-9.58v41.82H873.3V694.12A31.78,31.78,0,0,0,868,675.83Q862.72,668,850,668a27.64,27.64,0,0,0-11.38,2.21A30.15,30.15,0,0,0,830,676a97.25,97.25,0,0,0-8.21,9.17V669h-9.47v41.82H786.85V669.23q-3.54-.4-11.29-.81t-12.19-.4q-9.18,0-14.41,2.47a14.8,14.8,0,0,0-7.56,8.06q-2.31,5.58-2.32,15.16,0,9.78,2.42,15.32a15,15,0,0,0,7.76,8q5.34,2.41,14.61,2.41H982.22V694.22Q982.22,680.3,976.53,674.17ZM777.37,710.84H765a23.78,23.78,0,0,1-9.67-1.61,9.77,9.77,0,0,1-5.09-5.34,27.32,27.32,0,0,1-1.57-10.28,26.59,26.59,0,0,1,1.52-9.92,9.78,9.78,0,0,1,5-5.34,22.13,22.13,0,0,1,9.43-1.67q4.73,0,12.79.61Zm86.46,0h-42v-13.6q12.9-20.65,26.7-20.66,7.46,0,11.39,5.5c2.62,3.66,3.93,8.2,3.93,13.65Zm108.82,0H947.86q-.5-2.72-1-7.2a87.45,87.45,0,0,1-.46-9A107.85,107.85,0,0,1,948,677.49a39.11,39.11,0,0,1,8.47-.91q8.46,0,12.34,4.08T972.65,694Z"/><path class="cls-17" d="M70.93,831.76H42.41q-10.08,0-13.95-2.57t-3.88-8.41A103.64,103.64,0,0,1,26,807.48l.4-3.23-7.86-.4Q16,816.65,16,823q0,6.75,3,10.53a15.82,15.82,0,0,0,8.82,5.29,62,62,0,0,0,15.12,1.52H80.5V768.58H70.93Z"/><path class="cls-17" d="M37.27,805l21.06-4.14-1.21-5-11.28,3a5.63,5.63,0,0,1,3.32-10.28,6.65,6.65,0,0,1,2.62.51,7.38,7.38,0,0,1,1.82,1l1.1-4.53a13.27,13.27,0,0,0-7.45-2.42,9.39,9.39,0,0,0-7.06,2.82,9.28,9.28,0,0,0-2.72,6.65,9.7,9.7,0,0,0,.91,4.08A9.1,9.1,0,0,0,41.1,800l-4.84,1.31Z"/><path class="cls-17" d="M173.4,831.76H135.82V790.14c-2.55-.54-5.83-1-9.82-1.46a100.81,100.81,0,0,0-10.63-.65q-8.27,0-13.05,2.77a15.46,15.46,0,0,0-6.86,8.72q-2.05,5.94-2.16,15.92Q93.3,826,97,833.17t15.36,7.16h13.81A37.2,37.2,0,0,1,125,850.75c-.74,2.39-1.82,4-3.23,4.79a11.12,11.12,0,0,1-5.54,1.21,102.21,102.21,0,0,1-15.21-1.61v8.56A142.83,142.83,0,0,0,117,865.31q9.57,0,13.75-6.55t4.89-18.43h88.16v-8.57H173.4Zm-47.15,0H115.47q-7.77,0-10.18-4.69a26,26,0,0,1-2.42-11.94q.1-10,3.28-14.26t11.33-4.28a63.05,63.05,0,0,1,8.77.71Z"/><polygon class="cls-17" points="324.55 831.76 299.36 831.76 274.17 831.76 248.98 831.76 223.79 831.76 223.79 840.33 248.98 840.33 274.17 840.33 299.36 840.33 324.55 840.33 349.74 840.33 374.93 840.33 374.93 831.76 349.74 831.76 324.55 831.76"/><rect class="cls-17" x="465.72" y="848.38" width="9.17" height="9.88"/><rect class="cls-17" x="512.37" y="770.8" width="8.46" height="9.77"/><rect class="cls-17" x="498.87" y="770.8" width="8.56" height="9.77"/><polygon class="cls-17" points="544.72 831.76 529.71 831.76 529.7 831.76 514.69 831.76 514.69 789.94 505.12 789.94 505.12 831.76 490.1 831.76 475.09 831.76 475.09 789.94 465.52 789.94 465.52 831.76 450.5 831.76 425.31 831.76 400.12 831.76 374.93 831.76 374.93 840.33 400.12 840.33 425.31 840.33 450.5 840.33 490.1 840.33 529.7 840.33 529.71 840.33 554.29 840.33 554.29 789.94 544.72 789.94 544.72 831.76"/><rect class="cls-17" x="545.02" y="848.38" width="9.17" height="9.88"/><rect class="cls-17" x="603.86" y="770.8" width="8.57" height="9.77"/><rect class="cls-17" x="617.36" y="770.8" width="8.46" height="9.77"/><path class="cls-17" d="M647.19,831.76H636V790.14q-3.54-.4-11.29-.8t-12.19-.4q-9.18,0-14.41,2.46a14.87,14.87,0,0,0-7.56,8.06q-2.31,5.6-2.32,15.17,0,9.78,2.42,15.31a15,15,0,0,0,7.76,8q5.34,2.43,14.61,2.43h84.54v-8.57H647.19Zm-20.66,0H614.14a23.78,23.78,0,0,1-9.67-1.61,9.8,9.8,0,0,1-5.09-5.34,27.35,27.35,0,0,1-1.57-10.28,26.65,26.65,0,0,1,1.52-9.93,9.84,9.84,0,0,1,5-5.34,22.14,22.14,0,0,1,9.43-1.66q4.72,0,12.79.6Z"/><rect class="cls-17" x="770.12" y="848.38" width="8.46" height="9.67"/><rect class="cls-17" x="756.62" y="848.38" width="8.56" height="9.67"/><path class="cls-17" d="M877.39,788.13a39,39,0,0,0-17.19-3.63q-10.28,0-24.58,3.83l.7,7.45q15-2.71,22-2.71,10.79,0,18.29,5.79t7.51,20.31v12.59H870.88v-6.25A19.05,19.05,0,0,0,861.52,809a18.39,18.39,0,0,0-9.58-2.57,18.12,18.12,0,0,0-9.57,2.62,19.61,19.61,0,0,0-6.9,7,18.24,18.24,0,0,0-2.57,9.42v6.25H809.52V768.58H800v63.18H772.54V789.94H763v41.82h-65.4v8.57H893.66V819.06q0-11.79-4.38-19.54A27,27,0,0,0,877.39,788.13Zm-16,43.63H842.47v-6.85a9.67,9.67,0,0,1,2.72-7,9.49,9.49,0,0,1,13.5,0,9.51,9.51,0,0,1,2.72,6.86Z"/><path class="cls-17" d="M909.58,777l21-4.13-1.2-5-11.29,3a5.63,5.63,0,0,1,3.33-10.28,6.9,6.9,0,0,1,2.62.5,7.6,7.6,0,0,1,1.81,1L927,757.6a13.25,13.25,0,0,0-7.46-2.42,9.35,9.35,0,0,0-7,2.82,9.24,9.24,0,0,0-2.72,6.65,9.69,9.69,0,0,0,.9,4.08,9.2,9.2,0,0,0,2.72,3.38l-4.83,1.3Z"/><polygon class="cls-17" points="943.23 831.76 925.7 831.76 925.7 782.18 916.13 782.18 916.13 831.76 903.33 831.76 903.33 840.33 952.7 840.33 952.7 768.58 943.23 768.58 943.23 831.76"/><rect class="cls-17" x="969.23" y="768.58" width="9.57" height="71.75"/><path class="cls-18" d="M684.65,336.66s-.2-.31-.61-.85-1-1.31-1.68-2.27c-1.4-1.91-3.29-4.55-5.28-7.45s-4.33-5.85-6.22-8.73a60.05,60.05,0,0,1-4.5-7.48c-1.78-4.06-1-8.15-.57-12.86a43.29,43.29,0,0,0,.22-7.75,27,27,0,0,0-2.3-9.28c-1.48-3.34,3.76,2,9.34,9.59s11.48,17.4,12.86,21.83a27.68,27.68,0,0,1,1.22,7.92,56.74,56.74,0,0,1-.61,8.33c-.36,2.57-.82,4.82-1.19,6.42S684.65,336.66,684.65,336.66Z"/><path class="cls-19" d="M663.05,305.62a9.23,9.23,0,0,0-.67-.8l-1.85-2.14c-1.55-1.8-3.64-4.28-5.84-7s-4.77-5.51-6.87-8.23a59.32,59.32,0,0,1-5.07-7.12c-2.08-3.91-1.63-8.05-1.55-12.77a43.79,43.79,0,0,0-.38-7.75,26.72,26.72,0,0,0-3-9.07c-1.73-3.22,3.9,1.67,10,8.84s12.78,16.47,14.49,20.78a27,27,0,0,1,1.83,7.8,58.33,58.33,0,0,1,0,8.35c-.17,2.6-.46,4.87-.71,6.5S663.05,305.62,663.05,305.62Z"/><path class="cls-20" d="M637.37,280.21s-.22-.3-.67-.8l-1.85-2.14c-1.54-1.8-3.63-4.28-5.83-7s-4.77-5.5-6.88-8.23a61.08,61.08,0,0,1-5.06-7.11c-2.08-3.91-1.63-8-1.56-12.78a43.57,43.57,0,0,0-.37-7.74,27.1,27.1,0,0,0-3-9.08c-1.73-3.22,3.9,1.67,10.05,8.85s12.79,16.47,14.5,20.78a27.63,27.63,0,0,1,1.83,7.79,58.42,58.42,0,0,1,0,8.36c-.16,2.59-.45,4.87-.7,6.49S637.37,280.21,637.37,280.21Z"/><path class="cls-21" d="M613.43,257a9.27,9.27,0,0,0-.73-.75l-2-2c-1.67-1.67-4-4-6.35-6.56s-5.18-5.12-7.48-7.68a59.19,59.19,0,0,1-5.59-6.71c-2.37-3.74-2.24-7.9-2.52-12.61a43.79,43.79,0,0,0-1-7.7,26.9,26.9,0,0,0-3.69-8.82c-2-3.07,4,1.37,10.7,8s14,15.45,16,19.62a27.17,27.17,0,0,1,2.42,7.64,58.19,58.19,0,0,1,.67,8.32c0,2.6-.08,4.89-.21,6.53S613.43,257,613.43,257Z"/><path class="cls-22" d="M634.4,312.58a35.05,35.05,0,0,0,8.62,1.13,54.38,54.38,0,0,0,7.38-.64c4.64-.68,8.6-1.22,12.43.82A34.62,34.62,0,0,1,669.7,319c2.46,2.33,5.07,5,7.41,7.57s4.24,5.17,5.68,7l1.71,2.2a9.69,9.69,0,0,1,.6.83l-2.66-.12c-1.66-.09-3.94-.24-6.44-.5a73.73,73.73,0,0,1-7.77-1.17,29.66,29.66,0,0,1-7.08-2.12c-3.64-1.87-11.62-7.73-18.21-12.43S631.28,311.77,634.4,312.58Z"/><path class="cls-23" d="M604.29,294.71a34.36,34.36,0,0,0,8.69-.31,53.14,53.14,0,0,0,7.17-1.84c4.47-1.43,8.28-2.62,12.4-1.24a34.06,34.06,0,0,1,7.62,3.95c2.81,1.89,5.83,4.1,8.56,6.24s5,4.41,6.76,6l2,1.89a8.75,8.75,0,0,1,.73.72l-2.65.32c-1.65.18-3.92.41-6.43.57s-5.25.24-7.86.13a30.13,30.13,0,0,1-7.33-.93c-3.9-1.25-12.73-5.71-20-9.26S601.08,294.43,604.29,294.71Z"/><path class="cls-24" d="M581.44,272.07a35.23,35.23,0,0,0,8.68-.31,54.65,54.65,0,0,0,7.17-1.85c4.47-1.43,8.28-2.62,12.4-1.24a34.06,34.06,0,0,1,7.62,3.95c2.81,1.89,5.83,4.11,8.56,6.25s5,4.4,6.76,6l2,1.89a8.75,8.75,0,0,1,.73.72l-2.65.32c-1.65.19-3.92.41-6.43.57a73.19,73.19,0,0,1-7.86.13,30.19,30.19,0,0,1-7.33-.93c-3.9-1.24-12.73-5.71-20-9.26S578.22,271.78,581.44,272.07Z"/><path class="cls-25" d="M554.32,253.41a35.11,35.11,0,0,0,8.66-.72,53.61,53.61,0,0,0,7.08-2.19c4.4-1.64,8.15-3,12.32-1.82a34.16,34.16,0,0,1,7.81,3.59c2.89,1.75,6,3.82,8.84,5.83s5.23,4.16,7,5.66l2.13,1.79a10,10,0,0,1,.77.69l-2.63.44c-1.64.26-3.9.59-6.4.87a74.65,74.65,0,0,1-7.85.5,29.87,29.87,0,0,1-7.36-.58c-4-1.06-13-5.1-20.43-8.3S551.1,253.28,554.32,253.41Z"/><path class="cls-26" d="M585.17,236.54s-.25-.23-.74-.59l-2-1.56c-1.7-1.32-4-3.15-6.45-5.19s-5.23-4-7.59-6.07a54.44,54.44,0,0,1-5.78-5.41c-2.56-3.1-2.9-6.86-3.69-11.07a39.83,39.83,0,0,0-1.73-6.81,24.46,24.46,0,0,0-4.31-7.53c-2.11-2.54,3.77.79,10.53,6.05S577.7,210.69,580,214.21a24.73,24.73,0,0,1,3,6.6,51.93,51.93,0,0,1,1.54,7.42c.32,2.33.48,4.4.55,5.89S585.17,236.54,585.17,236.54Z"/><path class="cls-27" d="M559.13,219.1s-.28-.19-.81-.48l-2.23-1.27c-1.86-1.08-4.4-2.57-7.1-4.25s-5.74-3.28-8.35-5a52.64,52.64,0,0,1-6.47-4.56c-3-2.72-3.82-6.39-5.18-10.45a39.56,39.56,0,0,0-2.65-6.52,24.16,24.16,0,0,0-5.3-6.85c-2.44-2.23,3.84.25,11.26,4.54s15.88,10.24,18.64,13.41a24.6,24.6,0,0,1,3.91,6.12,51.56,51.56,0,0,1,2.54,7.14c.64,2.26,1.08,4.3,1.36,5.76S559.13,219.1,559.13,219.1Z"/><path class="cls-28" d="M530,204s-.29-.18-.84-.45l-2.28-1.16c-1.91-1-4.51-2.36-7.29-3.91s-5.89-3-8.58-4.58a53.12,53.12,0,0,1-6.68-4.25c-3.08-2.57-4.11-6.2-5.66-10.2a39.27,39.27,0,0,0-2.95-6.38,24.43,24.43,0,0,0-5.62-6.6c-2.55-2.11,3.85.07,11.46,4S517.87,180,520.77,183a24.46,24.46,0,0,1,4.2,5.93,52.49,52.49,0,0,1,2.87,7c.75,2.24,1.28,4.25,1.63,5.7S530,204,530,204Z"/><path class="cls-29" d="M500.5,190.81s-.3-.16-.85-.41l-2.32-1.09c-1.94-.93-4.58-2.22-7.41-3.69s-6-2.81-8.72-4.3a54.8,54.8,0,0,1-6.81-4c-3.15-2.48-4.3-6.07-6-10a40,40,0,0,0-3.15-6.28,24.37,24.37,0,0,0-5.82-6.43c-2.61-2,3.85,0,11.58,3.65s16.63,9,19.63,11.92a24.72,24.72,0,0,1,4.38,5.8,52.51,52.51,0,0,1,3.09,6.91c.81,2.21,1.41,4.2,1.8,5.64S500.5,190.81,500.5,190.81Z"/><path class="cls-30" d="M529.81,238.43a31.44,31.44,0,0,0,7.73-1.51,48.28,48.28,0,0,0,6.17-2.66c3.8-1.92,7-3.52,10.92-2.86a31.24,31.24,0,0,1,7.39,2.46c2.78,1.3,5.79,2.86,8.55,4.39s5.12,3.23,6.89,4.4l2.1,1.4a8.78,8.78,0,0,1,.76.55l-2.33.66c-1.45.39-3.45.92-5.68,1.41a67.57,67.57,0,0,1-7,1.23,27.33,27.33,0,0,1-6.69.2c-3.67-.56-12.21-3.32-19.23-5.47S526.89,238.62,529.81,238.43Z"/><path class="cls-31" d="M506.31,225.31a31.84,31.84,0,0,0,7.58-2.16A49.52,49.52,0,0,0,519.8,220c3.62-2.24,6.71-4.11,10.64-3.8A31.53,31.53,0,0,1,538,218c2.88,1.05,6,2.34,8.89,3.63s5.39,2.77,7.25,3.79l2.22,1.21c.52.29.8.48.8.48l-2.26.86c-1.41.52-3.37,1.22-5.54,1.9a67.5,67.5,0,0,1-6.89,1.83,27,27,0,0,1-6.65.78c-3.7-.24-12.45-2.25-19.63-3.78S503.42,225.76,506.31,225.31Z"/><path class="cls-32" d="M478.22,210.5a31.77,31.77,0,0,0,7.62-2,47.82,47.82,0,0,0,6-3c3.67-2.14,6.82-3.94,10.73-3.52a30.91,30.91,0,0,1,7.52,2c2.86,1.12,6,2.49,8.8,3.85s5.32,2.91,7.16,4l2.18,1.27a9.11,9.11,0,0,1,.79.5l-2.28.8c-1.43.48-3.4,1.13-5.58,1.76a68.89,68.89,0,0,1-6.94,1.66,27,27,0,0,1-6.67.61c-3.69-.34-12.38-2.56-19.52-4.27S475.31,210.88,478.22,210.5Z"/><path class="cls-33" d="M451.26,197.68a32,32,0,0,0,7.55-2.23,48.35,48.35,0,0,0,5.88-3.24c3.61-2.27,6.69-4.17,10.61-3.88a30.5,30.5,0,0,1,7.59,1.75c2.89,1,6,2.29,8.92,3.55s5.41,2.74,7.28,3.73l2.23,1.2c.53.28.81.47.81.47l-2.26.88c-1.41.53-3.35,1.24-5.52,2a67.91,67.91,0,0,1-6.87,1.88,27.26,27.26,0,0,1-6.65.84c-3.7-.22-12.46-2.15-19.66-3.62S448.37,198.15,451.26,197.68Z"/><path class="cls-34" d="M469.16,177s-.25-.13-.71-.31l-1.94-.81c-1.63-.68-3.84-1.63-6.21-2.72s-5-2.07-7.31-3.18a43.64,43.64,0,0,1-5.73-3.05c-2.68-1.9-3.76-4.8-5.28-8a32.93,32.93,0,0,0-2.83-5,20,20,0,0,0-5-5c-2.22-1.56,3.14-.18,9.61,2.54s14,6.69,16.55,9a20.74,20.74,0,0,1,3.81,4.57,45.75,45.75,0,0,1,2.8,5.54c.75,1.78,1.32,3.39,1.69,4.55S469.16,177,469.16,177Z"/><path class="cls-35" d="M443.82,170.08s-.25-.13-.71-.31l-1.94-.8c-1.62-.69-3.84-1.64-6.21-2.73s-5-2.07-7.31-3.18a45.69,45.69,0,0,1-5.73-3c-2.68-1.91-3.76-4.81-5.28-8a31.59,31.59,0,0,0-2.83-5,19.86,19.86,0,0,0-5-5c-2.22-1.57,3.15-.19,9.62,2.53s14,6.69,16.54,9a20.31,20.31,0,0,1,3.81,4.58,43.67,43.67,0,0,1,2.8,5.54c.75,1.77,1.32,3.38,1.69,4.54S443.82,170.08,443.82,170.08Z"/><path class="cls-36" d="M417.43,161.85a7.2,7.2,0,0,0-.72-.28l-2-.71c-1.65-.61-3.9-1.47-6.32-2.45s-5.09-1.85-7.44-2.86a43.76,43.76,0,0,1-5.86-2.79c-2.76-1.78-4-4.63-5.63-7.73a32.4,32.4,0,0,0-3-4.89,20,20,0,0,0-5.23-4.8c-2.29-1.47,3.13-.33,9.72,2.1s14.25,6.07,16.92,8.25a20.64,20.64,0,0,1,4,4.4,44.23,44.23,0,0,1,3,5.41c.83,1.74,1.46,3.33,1.89,4.47S417.43,161.85,417.43,161.85Z"/><path class="cls-37" d="M387.37,157.73s-.28,0-.78,0l-2.09.06c-1.77,0-4.18.08-6.79.06s-5.41.15-8,.08a44.65,44.65,0,0,1-6.48-.43c-3.23-.65-5.4-2.85-8.08-5.12a32.15,32.15,0,0,0-4.63-3.42,19.82,19.82,0,0,0-6.63-2.54c-2.67-.52,2.79-1.46,9.81-1.62s15.49.39,18.77,1.43a20.2,20.2,0,0,1,5.35,2.62,43.81,43.81,0,0,1,4.82,3.91c1.41,1.31,2.58,2.55,3.4,3.45S387.37,157.73,387.37,157.73Z"/><path class="cls-38" d="M427.5,186.17a25.67,25.67,0,0,0,6.23-1.69,38.38,38.38,0,0,0,4.88-2.55c3-1.79,5.55-3.29,8.76-3a25.73,25.73,0,0,1,6.18,1.57c2.36.89,4.91,2,7.25,3.07s4.39,2.34,5.9,3.19l1.81,1a7.1,7.1,0,0,1,.65.4l-1.87.68c-1.16.41-2.76,1-4.55,1.5s-3.76,1.06-5.67,1.42a22,22,0,0,1-5.46.56c-3-.24-10.17-2-16-3.31S425.13,186.51,427.5,186.17Z"/><path class="cls-39" d="M401.31,177.91a26.61,26.61,0,0,0,6.07-2.2,40,40,0,0,0,4.65-3c2.83-2,5.26-3.74,8.48-3.7a25.11,25.11,0,0,1,6.3,1.05c2.42.69,5.05,1.57,7.47,2.46s4.57,2,6.15,2.69l1.88.86c.45.21.68.35.68.35l-1.8.83c-1.12.51-2.68,1.19-4.42,1.87a55.23,55.23,0,0,1-5.53,1.88,21.64,21.64,0,0,1-5.39,1c-3,0-10.3-1.13-16.26-2S399,178.44,401.31,177.91Z"/><path class="cls-40" d="M375,174.07a26,26,0,0,0,5.79-2.85,40,40,0,0,0,4.3-3.44c2.59-2.33,4.81-4.3,8-4.61a25.35,25.35,0,0,1,6.37.35c2.48.43,5.2,1,7.71,1.63s4.75,1.45,6.4,2l2,.66a6.17,6.17,0,0,1,.72.27l-1.7,1c-1.06.63-2.53,1.47-4.18,2.34a55.73,55.73,0,0,1-5.29,2.48,22.14,22.14,0,0,1-5.25,1.61c-3,.34-10.37,0-16.39-.18S372.73,174.86,375,174.07Z"/><path class="cls-41" d="M343.17,173.79S254.65,380,162,483.11,15.11,623.71,15.11,623.71,270.27,531,384.83,607C300.47,469.57,253.61,392,343.17,173.79Z"/><path class="cls-42" d="M946.61,463v80.82l-158-.31a83.24,83.24,0,0,0,3-10.59A93.35,93.35,0,0,0,793.42,509a126,126,0,0,0-3.35-22.41c-.45-1.77-.86-3.55-1.34-5.32s-1.06-3.44-1.59-5.16c-1-3.47-2.32-6.73-3.5-10.06s-2.71-6.45-4.08-9.64-2.9-6.24-4.49-9.26-3.18-6-4.85-8.94-3.4-5.81-5.15-8.66l-5.35-8.42-5.55-8.21c-3.77-5.39-7.54-10.75-11.47-15.94s-7.84-10.37-11.81-15.47c-8.07-10.1-16.94-19.56-25.78-28.88S688,333.66,680,323.69c-2-2.51-4.11-4.88-6.22-7.27l-6.35-7.16q-6.54-7-13.26-13.78c-9.14-8.88-18.48-17.55-28.34-25.58l-7.36-6.08L610.92,258c-5-4-10.23-7.53-15.35-11.28-2.56-1.88-5.25-3.58-7.87-5.37s-5.23-3.6-7.93-5.27c-5.38-3.36-10.69-6.83-16.17-10-10.84-6.6-22-12.58-33.28-18.4s-22.8-11.07-34.41-16.14-23.44-9.61-35.32-14-23.93-8.3-36.09-11.85-24.39-6.8-36.89-9.32l-.48,2.73c12.32,2.29,24.59,5.42,36.68,9s24.1,7.44,35.95,11.75a556.43,556.43,0,0,1,69.13,30.6c44.55,23.52,85.94,53.34,120.45,89.79q6.38,6.9,12.59,13.95l6,7.23c2,2.41,4,4.79,5.87,7.32a193.82,193.82,0,0,1,20.29,31.78c5.9,11.21,11.11,22.76,16.77,33.87s10.84,22.39,15.47,33.75a353.1,353.1,0,0,1,11.95,34.08l2.36,8.41c.67,2.78,1.37,5.57,2,8.32,1.26,5.48,2.24,10.94,2.91,16.18a110.23,110.23,0,0,1,.93,15.22,103.7,103.7,0,0,1-1,13.84,92.18,92.18,0,0,1-3,13.17c-1.37,4.49-3.21,9.18-5.23,14.58h0l-20.36,30.68,36.49-.07,212.41-.41h19.14V463Z"/><rect class="cls-43" x="946.61" y="589.02" width="38.29" height="32.81"/><rect class="cls-44" x="479.73" y="321.7" width="38.29" height="32.81"/><path class="cls-45" d="M167,610.29a6.53,6.53,0,0,0,2.83-2.48,7.93,7.93,0,0,0,.93-4.12q0-3.88-2.14-5.73T162,596.12H151.41v29.27h11.17q4.44,0,6.74-1.93t2.31-6.06a8.11,8.11,0,0,0-1.14-4.58A6.84,6.84,0,0,0,167,610.29ZM154.67,599h7.23a6.21,6.21,0,0,1,4.19,1.17,4.82,4.82,0,0,1,1.31,3.78,4.55,4.55,0,0,1-5.2,5.16h-7.53Zm12.16,22.29a6.76,6.76,0,0,1-4.38,1.23h-7.78V611.94h7.57a7.4,7.4,0,0,1,4.44,1.2q1.65,1.22,1.65,4.17A4.83,4.83,0,0,1,166.83,621.28Z"/><path class="cls-46" d="M191.85,621.45V610.62c0-2.36-.55-4.09-1.63-5.18s-2.83-1.62-5.23-1.62a41.16,41.16,0,0,0-8.24.93l.12,2.41a75.86,75.86,0,0,1,8.34-.55q3.47,0,3.47,4v1.83l-6.65.63a8.17,8.17,0,0,0-4.92,1.82,6,6,0,0,0-1.55,4.52,6.72,6.72,0,0,0,1.53,4.74,5.73,5.73,0,0,0,4.44,1.65,18.39,18.39,0,0,0,7.61-1.69,6.83,6.83,0,0,0,5,1.69l.13-2.49C192.75,623.12,191.93,622.5,191.85,621.45Zm-3.17.39-1,.33a17.35,17.35,0,0,1-5.67,1q-3.21,0-3.21-3.9a3.85,3.85,0,0,1,.85-2.7,4.05,4.05,0,0,1,2.75-1.1l6.26-.6Z"/><path class="cls-47" d="M205.38,623a2.92,2.92,0,0,1-2-.61,2.89,2.89,0,0,1-.82-1.78,25.58,25.58,0,0,1-.17-3.53V607h6.72v-2.75h-6.72v-6.47h-3.13v6.47h-3V607h3v11.12a16,16,0,0,0,.53,4.68,3.94,3.94,0,0,0,1.73,2.36,6.67,6.67,0,0,0,3.36.7,32.14,32.14,0,0,0,4.53-.46l-.21-2.63Z"/><path class="cls-48" d="M227.06,604.81a7.7,7.7,0,0,0-4.25-1,13.4,13.4,0,0,0-3.23.38,19.2,19.2,0,0,0-3.45,1.22V595H213v30.37h3.18V607.92l.8-.3a14.67,14.67,0,0,1,5-1,5.23,5.23,0,0,1,2.94.68,3.5,3.5,0,0,1,1.36,2.26,23,23,0,0,1,.36,4.72v11.08h3.17V614.22a24.36,24.36,0,0,0-.61-6.17A5.39,5.39,0,0,0,227.06,604.81Z"/><path class="cls-49" d="M243.66,603.82q-4.6,0-6.77,2.83t-2.15,8.71c0,3.61.67,6.26,2,7.93s3.61,2.52,6.83,2.52a56.67,56.67,0,0,0,7.78-.68l-.08-2.49-1.23.12c-.88.09-1.85.15-2.92.19s-2,.07-2.83.07a9,9,0,0,1-3.83-.66,3.76,3.76,0,0,1-1.95-2.13,11.84,11.84,0,0,1-.57-4.11h14l.17-2.4q0-5-2.09-7.47T243.66,603.82Zm-5.75,9.77c0-2.46.51-4.25,1.44-5.4a5.24,5.24,0,0,1,4.31-1.71,4.7,4.7,0,0,1,4,1.63c.82,1.09,1.23,2.91,1.23,5.48Z"/><path class="cls-50" d="M265,603.82q-4.61,0-6.77,2.83t-2.15,8.71c0,3.61.67,6.26,2,7.93s3.61,2.52,6.83,2.52a56.8,56.8,0,0,0,7.78-.68l-.09-2.49-1.22.12c-.88.09-1.85.15-2.92.19s-2,.07-2.83.07a9,9,0,0,1-3.83-.66,3.76,3.76,0,0,1-1.95-2.13,11.84,11.84,0,0,1-.57-4.11h14l.17-2.4q0-5-2.1-7.47T265,603.82Zm-5.75,9.77c0-2.46.51-4.25,1.44-5.4a5.24,5.24,0,0,1,4.31-1.71,4.7,4.7,0,0,1,4,1.63c.82,1.09,1.23,2.91,1.23,5.48Z"/><path class="cls-51" d="M281.52,604.24h-3.13v21.15h3.17V609.86l1.06-.54a30.34,30.34,0,0,1,6.64-2.33v-3.22a21.07,21.07,0,0,0-7.74,3.35Z"/><rect class="cls-52" x="290.48" y="620.57" width="3.47" height="4.82"/><path class="cls-53" d="M313.26,605a13,13,0,0,0-10.59,0,6.37,6.37,0,0,0-2.88,3.55,19.27,19.27,0,0,0-.89,6.45,18.85,18.85,0,0,0,.85,6.26,6.25,6.25,0,0,0,2.83,3.49,13.51,13.51,0,0,0,10.77,0,6.26,6.26,0,0,0,2.81-3.49,23.84,23.84,0,0,0,0-12.69A6.57,6.57,0,0,0,313.26,605Zm0,14.82a4.11,4.11,0,0,1-1.71,2.5,6.65,6.65,0,0,1-3.55.78,6.88,6.88,0,0,1-3.62-.78,4.11,4.11,0,0,1-1.73-2.52,24.29,24.29,0,0,1,0-9.9,4.19,4.19,0,0,1,1.77-2.53,6.82,6.82,0,0,1,3.54-.76,6.68,6.68,0,0,1,3.51.76,4.18,4.18,0,0,1,1.73,2.53,19.47,19.47,0,0,1,.51,5.08A18.32,18.32,0,0,1,313.26,619.78Z"/><path class="cls-54" d="M325.3,604.24h-3.14v21.15h3.18V609.86l1.06-.54a24.76,24.76,0,0,1,3.06-1.29,24.38,24.38,0,0,1,3.58-1v-3.22a21.07,21.07,0,0,0-7.74,3.35Z"/><path class="cls-55" d="M354.4,604.2l-6.26.17a19.06,19.06,0,0,0-4.32-.55c-2.68,0-4.68.59-6,1.79s-2,3-2,5.48q0,4.86,3.34,6.35a22,22,0,0,0-1.19,2.3,3.36,3.36,0,0,0-.25,1.21,4.29,4.29,0,0,0,.3,1.6,2.24,2.24,0,0,0,.88,1.14,24,24,0,0,0-2,1.74,4.14,4.14,0,0,0-1,1.54,6.6,6.6,0,0,0-.32,2.22q0,3.3,2,4.72c1.31.94,3.55,1.42,6.7,1.42,3.5,0,6-.57,7.53-1.69s2.29-2.92,2.29-5.37a6.37,6.37,0,0,0-.93-3.75,4.45,4.45,0,0,0-2.65-1.71,19.5,19.5,0,0,0-4.5-.42h-1.65a8.08,8.08,0,0,1-2.69-.34,1.38,1.38,0,0,1-.86-1.44,3.57,3.57,0,0,1,.21-1.1c.14-.42.32-.92.55-1.48a11.46,11.46,0,0,0,2.15.17c2.8,0,4.84-.54,6.14-1.61s1.94-2.86,1.94-5.37a8.81,8.81,0,0,0-.33-2.64,4.35,4.35,0,0,0-1.06-1.76l4,.08ZM341.07,625l4.57.22a15,15,0,0,1,3.17.25,2.46,2.46,0,0,1,1.57,1,3.73,3.73,0,0,1,.46,2,3.68,3.68,0,0,1-1.39,3.28c-.93.63-2.57.95-4.91.95a8.87,8.87,0,0,1-4.55-.84,3.38,3.38,0,0,1-1.29-3.05,3.76,3.76,0,0,1,.49-2A7.41,7.41,0,0,1,341.07,625Zm6.43-10.36a5.19,5.19,0,0,1-3.68,1.06,5.28,5.28,0,0,1-3.7-1.06,4.71,4.71,0,0,1-1.12-3.55,4.82,4.82,0,0,1,1.12-3.58,5.36,5.36,0,0,1,3.74-1.07,5.16,5.16,0,0,1,3.64,1.05,6.36,6.36,0,0,1,0,7.15Z"/></svg>